<?xml version="1.0" standalone="no"?><!DOCTYPE svg PUBLIC "-//W3C//DTD SVG 1.1//EN" "http://www.w3.org/Graphics/SVG/1.1/DTD/svg11.dtd">
<svg t="1715734194286"
     class="icon"
     viewBox="0 0 1024 1024"
     version="1.1"
     xmlns="http://www.w3.org/2000/svg"
     p-id="15157"
     width="64"
     height="64"
     xmlns:xlink="http://www.w3.org/1999/xlink">
    <path
        d="M802.18112 116.48512H217.3952c-62.2848 0-112.96256 50.67264-112.96256 112.96256v569.38496c0 62.2848 50.67264 112.96256 112.96256 112.96256h584.78592c62.2848 0 112.96256-50.67264 112.96256-112.96256V229.44768c0-62.2848-50.67264-112.96256-112.96256-112.96256zM158.51008 798.83776V229.44768c0-32.47104 26.4192-58.88512 58.88512-58.88512h584.78592c32.46592 0 58.88512 26.41408 58.88512 58.88512v273.42336a293.49888 293.49888 0 0 0-46.53056-3.71712c-160.75776 0-291.53792 130.78528-291.53792 291.53792 0 22.76352 2.62144 45.184 7.76704 67.03104H217.3952c-32.46592 0-58.88512-26.4192-58.88512-58.88512z m643.67104 58.88512H586.7008a237.21984 237.21984 0 0 1-9.63584-67.03104c0-130.93888 106.52672-237.46048 237.4656-237.46048 15.68768 0 31.2832 1.53088 46.53056 4.5568v241.04448c0.01024 32.47104-26.40896 58.89024-58.88 58.89024z"
        fill="#333333"
        p-id="15158"></path>
    <path
        d="M334.7456 237.0304c-52.82816 0-95.80544 42.97728-95.80544 95.81056 0 52.82816 42.97728 95.80544 95.80544 95.80544s95.80544-42.97728 95.80544-95.80544c0-52.83328-42.97728-95.81056-95.80544-95.81056z m0 137.53856c-23.00928 0-41.73312-18.71872-41.73312-41.73312s18.71872-41.73312 41.73312-41.73312 41.73312 18.72384 41.73312 41.73312-18.72384 41.73312-41.73312 41.73312z"
        fill="#333333"
        p-id="15159"></path>
</svg>