<?xml version="1.0" encoding="UTF-8"?>
    <svg xmlns="http://www.w3.org/2000/svg" 
        xmlns:xlink="http://www.w3.org/1999/xlink" 
        width="24"
        height="24"
        viewBox="0 0 24 24"
        version="1.1">
        <title>Public/checkbox-circle-line</title>
        <defs>
            <path
                d="M12 22C6.47715 22 2 17.5228 2 12C2 6.47715 6.47715 2 12 2C17.5228 2 22 6.47715 22 12C22 17.5228 17.5228 22 12 22ZM12 20C16.4183 20 20 16.4183 20 12C20 7.58172 16.4183 4 12 4C7.58172 4 4 7.58172 4 12C4 16.4183 7.58172 20 12 20ZM11.0026 16L6.75999 11.7574L8.17421 10.3431L11.0026 13.1716L16.6595 7.51472L18.0737 8.92893L11.0026 16Z"
                id="_path-1"/>
        </defs>
        <g
            id="_Public/checkbox-circle-line"
            stroke="none"
            stroke-width="1"
            fill="none"
            fill-rule="evenodd">
            <mask
                id="_mask-2"
                fill="white">
                <use xlink:href="#_path-1"/>
            </mask>
            <use
                id="_形状结合"
                fill="#000000"
                fill-rule="nonzero"
                xlink:href="#_path-1"/>
        </g>
    </svg>