<?xml version="1.0" encoding="UTF-8"?>
    <svg xmlns="http://www.w3.org/2000/svg" 
        xmlns:xlink="http://www.w3.org/1999/xlink" 
        width="24"
        height="24"
        viewBox="0 0 24 24"
        version="1.1">
        <title>Public/more-2-line</title>
        <defs>
            <path
                d="M12 3C11.175 3 10.5 3.675 10.5 4.5C10.5 5.325 11.175 6 12 6C12.825 6 13.5 5.325 13.5 4.5C13.5 3.675 12.825 3 12 3ZM12 18C11.175 18 10.5 18.675 10.5 19.5C10.5 20.325 11.175 21 12 21C12.825 21 13.5 20.325 13.5 19.5C13.5 18.675 12.825 18 12 18ZM12 10.5C11.175 10.5 10.5 11.175 10.5 12C10.5 12.825 11.175 13.5 12 13.5C12.825 13.5 13.5 12.825 13.5 12C13.5 11.175 12.825 10.5 12 10.5Z"
                id="_path-1"/>
        </defs>
        <g
            id="_Public/more-2-line"
            stroke="none"
            stroke-width="1"
            fill="none"
            fill-rule="evenodd">
            <mask
                id="_mask-2"
                fill="white">
                <use xlink:href="#_path-1"/>
            </mask>
            <use
                id="_形状结合"
                fill="#000000"
                fill-rule="nonzero"
                xlink:href="#_path-1"/>
        </g>
    </svg>