<?xml version="1.0" encoding="UTF-8"?>
    <svg xmlns="http://www.w3.org/2000/svg" 
        xmlns:xlink="http://www.w3.org/1999/xlink" 
        width="24"
        height="24"
        viewBox="0 0 24 24"
        version="1.1">
        <title>Public/disc-fill</title>
        <defs>
            <path
                d="M13 9.17071C12.6872 9.06015 12.3506 9 12 9C10.3431 9 9 10.3431 9 12C9 13.6569 10.3431 15 12 15C13.6569 15 15 13.6569 15 12V2.4578C19.0571 3.73207 22 7.52236 22 12C22 17.5228 17.5228 22 12 22C6.47715 22 2 17.5228 2 12C2 6.47715 6.47715 2 12 2C12.3375 2 12.6711 2.01672 13 2.04938V9.17071Z"
                id="_path-1"/>
        </defs>
        <g
            id="_Public/disc-fill"
            stroke="none"
            stroke-width="1"
            fill="none"
            fill-rule="evenodd">
            <mask
                id="_mask-2"
                fill="white">
                <use xlink:href="#_path-1"/>
            </mask>
            <use
                id="_形状结合"
                fill="#000000"
                fill-rule="nonzero"
                xlink:href="#_path-1"/>
        </g>
    </svg>