<?xml version="1.0" encoding="UTF-8"?>
    <svg xmlns="http://www.w3.org/2000/svg" 
        xmlns:xlink="http://www.w3.org/1999/xlink" 
        width="24"
        height="24"
        viewBox="0 0 24 24"
        version="1.1">
        <title>Public/search-2-line</title>
        <defs>
            <path
                d="M11 2C15.968 2 20 6.032 20 11C20 15.968 15.968 20 11 20C6.032 20 2 15.968 2 11C2 6.032 6.032 2 11 2ZM11 18C14.8675 18 18 14.8675 18 11C18 7.1325 14.8675 4 11 4C7.1325 4 4 7.1325 4 11C4 14.8675 7.1325 18 11 18ZM19.4853 18.0711L22.3137 20.8995L20.8995 22.3137L18.0711 19.4853L19.4853 18.0711Z"
                id="_path-1"/>
        </defs>
        <g
            id="_Public/search-2-line"
            stroke="none"
            stroke-width="1"
            fill="none"
            fill-rule="evenodd">
            <mask
                id="_mask-2"
                fill="white">
                <use xlink:href="#_path-1"/>
            </mask>
            <use
                id="_形状结合"
                fill="#000000"
                fill-rule="nonzero"
                xlink:href="#_path-1"/>
        </g>
    </svg>